# Blender 4.1.1
# www.blender.org
mtllib cup.mtl
o cup
v 38.022530 14.687063 -3.000000
v 33.734650 15.084394 -3.000000
v 38.022530 38.022530 -3.000000
v 50.307072 18.182316 -3.000000
v 46.452271 16.262856 -3.000000
v 42.310410 15.084394 -3.000000
v 58.911583 27.621017 -3.000000
v 56.644634 23.959768 -3.000000
v 53.743530 20.777412 -3.000000
v 61.258450 40.175655 -3.000000
v 61.258450 35.869404 -3.000000
v 60.467178 31.636477 -3.000000
v 56.644634 52.085289 -3.000000
v 58.911583 48.424042 -3.000000
v 60.467178 44.408585 -3.000000
v 46.452271 59.782204 -3.000000
v 50.307072 57.862743 -3.000000
v 53.743530 55.267647 -3.000000
v 33.734650 60.960667 -3.000000
v 38.022530 61.357994 -3.000000
v 42.310410 60.960667 -3.000000
v 22.301527 55.267647 -3.000000
v 25.737989 57.862743 -3.000000
v 29.592787 59.782204 -3.000000
v 15.577879 44.408585 -3.000000
v 17.133476 48.424042 -3.000000
v 19.400425 52.085289 -3.000000
v 15.577879 31.636477 -3.000000
v 14.786609 35.869404 -3.000000
v 14.786609 40.175655 -3.000000
v 22.301527 20.777412 -3.000000
v 19.400425 23.959768 -3.000000
v 17.133476 27.621017 -3.000000
v 29.592787 16.262856 -3.000000
v 25.737989 18.182316 -3.000000
v 44.453762 72.426590 -98.000000
v 50.665989 70.659058 -98.000000
v 56.447655 67.780128 -98.000000
v 61.601875 63.887840 -98.000000
v 65.953133 59.114742 -98.000000
v 69.353249 53.623371 -98.000000
v 71.686424 47.600735 -98.000000
v 72.873230 41.251923 -98.000000
v 72.873230 34.793137 -98.000000
v 71.686424 28.444324 -98.000000
v 69.353249 22.421686 -98.000000
v 65.953133 16.930317 -98.000000
v 61.601875 12.157217 -98.000000
v 56.447655 8.264929 -98.000000
v 50.665989 5.386003 -98.000000
v 44.453762 3.618471 -98.000000
v 38.022530 3.022529 -98.000000
v 31.591297 3.618471 -98.000000
v 25.379070 5.386003 -98.000000
v 19.597404 8.264929 -98.000000
v 14.443181 12.157217 -98.000000
v 10.091927 16.930317 -98.000000
v 6.691813 22.421686 -98.000000
v 4.358631 28.444324 -98.000000
v 3.171831 34.793137 -98.000000
v 3.171831 41.251923 -98.000000
v 4.358631 47.600735 -98.000000
v 6.691813 53.623371 -98.000000
v 10.091927 59.114742 -98.000000
v 14.443181 63.887840 -98.000000
v 19.597404 67.780128 -98.000000
v 25.379070 70.659058 -98.000000
v 31.591297 72.426590 -98.000000
v 38.022530 73.022530 -98.000000
v 41.430843 0.153068 -98.000000
v 38.022530 0.000000 -98.000000
v 34.614216 0.153068 -98.000000
v 27.907135 1.370221 -98.000000
v 21.525173 3.765415 -98.000000
v 15.673448 7.261656 -98.000000
v 10.540040 11.746580 -98.000000
v 6.289944 17.076033 -98.000000
v 3.059756 23.078724 -98.000000
v 0.953305 29.561720 -98.000000
v 0.038285 36.316654 -98.000000
v 0.344113 43.126419 -98.000000
v 1.860954 49.772137 -98.000000
v 4.540060 56.040215 -98.000000
v 8.295318 61.729191 -98.000000
v 13.006035 66.656212 -98.000000
v 18.520802 70.662926 -98.000000
v 24.662371 73.620544 -98.000000
v 31.233345 75.434021 -98.000000
v 38.022530 76.045059 -98.000000
v 44.811714 75.434021 -98.000000
v 51.382690 73.620544 -98.000000
v 57.524258 70.662926 -98.000000
v 63.039024 66.656212 -98.000000
v 67.749741 61.729191 -98.000000
v 71.504997 56.040215 -98.000000
v 74.184105 49.772137 -98.000000
v 75.700943 43.126419 -98.000000
v 76.006775 36.316654 -98.000000
v 75.091751 29.561720 -98.000000
v 72.985306 23.078724 -98.000000
v 69.755112 17.076033 -98.000000
v 65.505020 11.746580 -98.000000
v 60.371613 7.261656 -98.000000
v 54.519886 3.765415 -98.000000
v 48.137924 1.370221 -98.000000
v 40.352222 12.137513 0.000000
v 38.022530 12.032887 0.000000
v 35.692837 12.137513 0.000000
v 31.108326 12.969479 0.000000
v 26.746046 14.606671 0.000000
v 22.746201 16.996468 0.000000
v 19.237349 20.062057 0.000000
v 16.332268 23.704914 0.000000
v 14.124332 27.807949 0.000000
v 12.684502 32.239288 0.000000
v 12.059057 36.856510 0.000000
v 12.268100 41.511204 0.000000
v 13.304910 46.053772 0.000000
v 15.136166 50.338207 0.000000
v 17.703009 54.226807 0.000000
v 20.922937 57.594589 0.000000
v 24.692461 60.333305 0.000000
v 28.890423 62.354939 0.000000
v 33.381901 63.594505 0.000000
v 38.022530 64.012169 0.000000
v 42.663158 63.594505 0.000000
v 47.154636 62.354939 0.000000
v 51.352596 60.333305 0.000000
v 55.122124 57.594589 0.000000
v 58.342052 54.226807 0.000000
v 60.908894 50.338207 0.000000
v 62.740150 46.053772 0.000000
v 63.776958 41.511204 0.000000
v 63.986000 36.856510 0.000000
v 63.360558 32.239288 0.000000
v 61.920727 27.807949 0.000000
v 59.712791 23.704914 0.000000
v 56.807709 20.062057 0.000000
v 53.298859 16.996468 0.000000
v 49.299011 14.606671 0.000000
v 44.936733 12.969479 0.000000
v 38.022530 38.022530 0.000000
vn -0.0000 0.6834 -0.7301
vn 0.1256 0.6718 -0.7301
vn -0.0000 -0.0000 -1.0000
vn -0.3598 0.5810 -0.7301
vn -0.2469 0.6372 -0.7301
vn -0.1256 0.6718 -0.7301
vn -0.6117 0.3046 -0.7301
vn -0.5454 0.4118 -0.7301
vn -0.4604 0.5050 -0.7301
vn -0.6805 -0.0631 -0.7301
vn -0.6805 0.0631 -0.7301
vn -0.6573 0.1870 -0.7301
vn -0.5454 -0.4118 -0.7301
vn -0.6117 -0.3046 -0.7301
vn -0.6573 -0.1870 -0.7301
vn -0.2469 -0.6372 -0.7301
vn -0.3598 -0.5810 -0.7301
vn -0.4604 -0.5050 -0.7301
vn 0.1256 -0.6718 -0.7301
vn -0.0000 -0.6834 -0.7301
vn -0.1256 -0.6718 -0.7301
vn 0.4604 -0.5050 -0.7301
vn 0.3598 -0.5810 -0.7301
vn 0.2469 -0.6372 -0.7301
vn 0.6573 -0.1870 -0.7301
vn 0.6117 -0.3046 -0.7301
vn 0.5454 -0.4118 -0.7301
vn 0.6573 0.1870 -0.7301
vn 0.6805 0.0631 -0.7301
vn 0.6805 -0.0631 -0.7301
vn 0.4604 0.5050 -0.7301
vn 0.5454 0.4118 -0.7301
vn 0.6117 0.3046 -0.7301
vn 0.2469 0.6372 -0.7301
vn 0.3598 0.5810 -0.7301
vn -0.1175 -0.6287 -0.7687
vn -0.2311 -0.5964 -0.7687
vn -0.3367 -0.5438 -0.7687
vn -0.4309 -0.4727 -0.7687
vn -0.5104 -0.3855 -0.7687
vn -0.5726 -0.2851 -0.7687
vn -0.6152 -0.1750 -0.7687
vn -0.6369 -0.0590 -0.7687
vn -0.6369 0.0590 -0.7687
vn -0.6152 0.1750 -0.7687
vn -0.5726 0.2851 -0.7687
vn -0.5104 0.3855 -0.7687
vn -0.4309 0.4727 -0.7687
vn -0.3367 0.5438 -0.7687
vn -0.2311 0.5964 -0.7687
vn -0.1175 0.6287 -0.7687
vn -0.0000 0.6396 -0.7687
vn 0.1175 0.6287 -0.7687
vn 0.2311 0.5964 -0.7687
vn 0.3367 0.5438 -0.7687
vn 0.4309 0.4727 -0.7687
vn 0.5104 0.3855 -0.7687
vn 0.5726 0.2851 -0.7687
vn 0.6152 0.1750 -0.7687
vn 0.6369 0.0590 -0.7687
vn 0.6369 -0.0590 -0.7687
vn 0.6152 -0.1750 -0.7687
vn 0.5726 -0.2851 -0.7687
vn 0.5104 -0.3855 -0.7687
vn 0.4309 -0.4727 -0.7687
vn 0.3367 -0.5438 -0.7687
vn 0.2311 -0.5964 -0.7687
vn 0.1175 -0.6287 -0.7687
vn -0.0000 -0.6396 -0.7687
vn 0.0853 -0.7576 -0.6471
vn -0.0000 -0.7581 -0.6522
vn -0.0853 -0.7576 -0.6471
vn -0.2039 -0.7390 -0.6421
vn -0.3326 -0.6907 -0.6421
vn -0.4506 -0.6202 -0.6421
vn -0.5541 -0.5298 -0.6421
vn -0.6398 -0.4223 -0.6421
vn -0.7049 -0.3013 -0.6421
vn -0.7474 -0.1706 -0.6421
vn -0.7658 -0.0344 -0.6421
vn -0.7597 0.1029 -0.6421
vn -0.7291 0.2369 -0.6421
vn -0.6751 0.3633 -0.6421
vn -0.5994 0.4780 -0.6421
vn -0.5044 0.5773 -0.6421
vn -0.3932 0.6581 -0.6421
vn -0.2694 0.7177 -0.6421
vn -0.1369 0.7543 -0.6421
vn -0.0000 0.7666 -0.6421
vn 0.1369 0.7543 -0.6421
vn 0.2694 0.7177 -0.6421
vn 0.3932 0.6581 -0.6421
vn 0.5044 0.5773 -0.6421
vn 0.5994 0.4780 -0.6421
vn 0.6751 0.3633 -0.6421
vn 0.7291 0.2369 -0.6421
vn 0.7597 0.1029 -0.6421
vn 0.7658 -0.0344 -0.6421
vn 0.7474 -0.1706 -0.6421
vn 0.7049 -0.3013 -0.6421
vn 0.6398 -0.4223 -0.6421
vn 0.5541 -0.5298 -0.6421
vn 0.4506 -0.6202 -0.6421
vn 0.3326 -0.6907 -0.6421
vn 0.2039 -0.7390 -0.6421
vn 0.0760 -0.6737 0.7351
vn -0.0000 -0.6730 0.7397
vn -0.0760 -0.6737 0.7351
vn -0.1817 -0.6582 0.7306
vn -0.2963 -0.6152 0.7306
vn -0.4014 -0.5524 0.7306
vn -0.4935 -0.4719 0.7306
vn -0.5699 -0.3762 0.7306
vn -0.6279 -0.2684 0.7306
vn -0.6657 -0.1519 0.7306
vn -0.6821 -0.0306 0.7306
vn -0.6766 0.0917 0.7306
vn -0.6494 0.2110 0.7306
vn -0.6013 0.3236 0.7306
vn -0.5339 0.4257 0.7306
vn -0.4493 0.5142 0.7306
vn -0.3502 0.5862 0.7306
vn -0.2399 0.6393 0.7306
vn -0.1219 0.6719 0.7306
vn -0.0000 0.6828 0.7306
vn 0.1219 0.6719 0.7306
vn 0.2399 0.6393 0.7306
vn 0.3502 0.5862 0.7306
vn 0.4493 0.5142 0.7306
vn 0.5339 0.4257 0.7306
vn 0.6013 0.3236 0.7306
vn 0.6494 0.2110 0.7306
vn 0.6766 0.0917 0.7306
vn 0.6821 -0.0306 0.7306
vn 0.6657 -0.1519 0.7306
vn 0.6279 -0.2684 0.7306
vn 0.5699 -0.3762 0.7306
vn 0.4935 -0.4719 0.7306
vn 0.4014 -0.5524 0.7306
vn 0.2963 -0.6152 0.7306
vn 0.1817 -0.6582 0.7306
vn -0.0000 -0.0000 1.0000
vt 0.397934 0.842542
vt 0.392158 0.827632
vt 0.475496 0.803921
vt 0.429883 0.877588
vt 0.417123 0.867952
vt 0.406351 0.856136
vt 0.475496 0.890566
vt 0.459575 0.889091
vt 0.444196 0.884715
vt 0.521109 0.877588
vt 0.506796 0.884715
vt 0.491417 0.889091
vt 0.553058 0.842542
vt 0.544640 0.856136
vt 0.533868 0.867952
vt 0.561772 0.795926
vt 0.561772 0.811915
vt 0.558834 0.827632
vt 0.544641 0.751705
vt 0.553058 0.765299
vt 0.558834 0.780209
vt 0.506796 0.723126
vt 0.521109 0.730253
vt 0.533869 0.739889
vt 0.459575 0.718750
vt 0.475496 0.717275
vt 0.491417 0.718750
vt 0.417123 0.739889
vt 0.429883 0.730253
vt 0.444196 0.723126
vt 0.392158 0.780209
vt 0.397934 0.765299
vt 0.406351 0.751705
vt 0.389220 0.811915
vt 0.389220 0.795926
vt 0.031656 0.718812
vt 0.000000 0.365800
vt 0.043617 0.718705
vt 0.017940 0.365639
vt 0.057325 0.718621
vt 0.038499 0.365513
vt 0.072311 0.718563
vt 0.060977 0.365427
vt 0.088066 0.718534
vt 0.084608 0.365383
vt 0.104054 0.718534
vt 0.108587 0.365383
vt 0.119730 0.718563
vt 0.132099 0.365427
vt 0.134560 0.718621
vt 0.154342 0.365513
vt 0.148039 0.718705
vt 0.174558 0.365639
vt 0.181890 0.723120
vt 0.214417 0.365080
vt 0.724129 0.363846
vt 0.755553 0.717193
vt 0.712373 0.364054
vt 0.737921 0.717505
vt 0.698826 0.364207
vt 0.717602 0.717736
vt 0.683948 0.364302
vt 0.695288 0.717878
vt 0.668248 0.364334
vt 0.671740 0.717926
vt 0.652259 0.364302
vt 0.647758 0.717878
vt 0.636526 0.364207
vt 0.624161 0.717736
vt 0.621584 0.364054
vt 0.601750 0.717505
vt 0.594099 0.362514
vt 0.565398 0.717234
vt 0.610672 -0.000000
vt 0.654756 0.352175
vt 0.628663 0.000311
vt 0.668489 0.352329
vt 0.649261 0.000542
vt 0.683493 0.352423
vt 0.671766 0.000683
vt 0.699257 0.352455
vt 0.695410 0.000731
vt 0.715244 0.352423
vt 0.719388 0.000683
vt 0.730910 0.352329
vt 0.742884 0.000542
vt 0.745721 0.352175
vt 0.765098 0.000311
vt 0.759172 0.351967
vt 0.785274 -0.000000
vt 0.405334 0.722351
vt 0.373457 0.364133
vt 0.433170 0.717168
vt 0.406803 0.364102
vt 0.446691 0.717084
vt 0.427083 0.363976
vt 0.461551 0.717026
vt 0.449369 0.363889
vt 0.477242 0.716997
vt 0.472904 0.363846
vt 0.493230 0.716997
vt 0.496885 0.363846
vt 0.508972 0.717026
vt 0.520495 0.363889
vt 0.523931 0.717084
vt 0.542931 0.363976
vt 0.537598 0.717167
vt 0.563429 0.364102
vt 0.849668 0.920218
vt 0.843665 0.931374
vt 0.834031 0.925618
vt 0.836686 0.941946
vt 0.819884 0.944982
vt 0.820034 0.961007
vt 0.802419 0.961417
vt 0.800245 0.976787
vt 0.782232 0.974363
vt 0.777957 0.988781
vt 0.760010 0.983379
vt 0.753885 0.996603
vt 0.736509 0.988159
vt 0.728804 1.000000
vt 0.712530 0.988539
vt 0.703519 0.998864
vt 0.688890 0.984506
vt 0.678843 0.993232
vt 0.666393 0.976198
vt 0.655570 0.983285
vt 0.645806 0.963898
vt 0.634446 0.969341
vt 0.627830 0.948024
vt 0.616152 0.951850
vt 0.613076 0.929118
vt 0.601275 0.931374
vt 0.602048 0.907822
vt 0.590293 0.908570
vt 0.595121 0.884863
vt 0.583560 0.884171
vt 0.592530 0.861021
vt 0.581291 0.858963
vt 0.594364 0.837110
vt 0.583560 0.833754
vt 0.600561 0.813942
vt 0.590293 0.809356
vt 0.610909 0.792308
vt 0.601275 0.786552
vt 0.625056 0.772944
vt 0.616152 0.766075
vt 0.642521 0.756509
vt 0.634446 0.748584
vt 0.662708 0.743563
vt 0.655570 0.734641
vt 0.684930 0.734546
vt 0.678843 0.724693
vt 0.708431 0.729767
vt 0.703519 0.719061
vt 0.732410 0.729387
vt 0.728804 0.717926
vt 0.756050 0.733420
vt 0.753885 0.721323
vt 0.778547 0.741728
vt 0.777957 0.729145
vt 0.799134 0.754028
vt 0.800245 0.741138
vt 0.817110 0.769902
vt 0.820034 0.756919
vt 0.831864 0.788808
vt 0.836686 0.775980
vt 0.842892 0.810104
vt 0.849668 0.797707
vt 0.849819 0.833063
vt 0.858562 0.821404
vt 0.852410 0.856905
vt 0.863081 0.846308
vt 0.850576 0.880816
vt 0.863081 0.871618
vt 0.844379 0.903983
vt 0.858562 0.896522
vt 0.468890 0.363754
vt 0.461711 0.363713
vt 0.434733 0.000237
vt 0.424907 0.000167
vt 0.454995 0.363665
vt 0.413374 0.363729
vt 0.407596 0.000000
vt 0.407596 -0.000000
vt 0.364116 0.363665
vt 0.387353 0.000166
vt 0.348647 0.363754
vt 0.364722 0.000296
vt 0.332043 0.363815
vt 0.340431 0.000385
vt 0.314838 0.363846
vt 0.315260 0.000430
vt 0.297585 0.363846
vt 0.290020 0.000430
vt 0.280839 0.363815
vt 0.265520 0.000385
vt 0.265137 0.363754
vt 0.242549 0.000296
vt 0.250985 0.363665
vt 0.221844 0.000166
vt 0.205167 0.364467
vt 0.204072 -0.000000
vt 0.249888 0.364140
vt 0.223259 0.727107
vt 0.264806 0.363978
vt 0.245085 0.726870
vt 0.281050 0.363879
vt 0.268848 0.726725
vt 0.298095 0.363846
vt 0.293786 0.726676
vt 0.315395 0.363879
vt 0.319095 0.726725
vt 0.332393 0.363978
vt 0.343964 0.726870
vt 0.348544 0.364140
vt 0.367592 0.727107
vt 0.204072 0.000925
vt 0.158610 0.365138
vt 0.185218 0.000567
vt 0.143868 0.364947
vt 0.163652 0.000288
vt 0.127747 0.364817
vt 0.140066 0.000097
vt 0.110764 0.364750
vt 0.115220 0.000000
vt 0.093465 0.364750
vt 0.089912 0.000000
vt 0.076406 0.364817
vt 0.064954 0.000097
vt 0.060135 0.364947
vt 0.041150 0.000288
vt 0.045175 0.365138
vt 0.019264 0.000567
vt 0.032007 0.365383
vt 0.000000 0.000925
vt 0.610672 0.000000
vt 0.606908 0.360766
vt 0.567876 0.363665
vt 0.590050 0.000167
vt 0.552215 0.363754
vt 0.567139 0.000297
vt 0.535494 0.363815
vt 0.542676 0.000386
vt 0.518248 0.363845
vt 0.517446 0.000431
vt 0.501034 0.363845
vt 0.492261 0.000431
vt 0.484403 0.363815
vt 0.467931 0.000386
vt 0.445236 0.000297
vt 0.192613 0.806565
vt 0.192613 0.823866
vt 0.096501 0.815216
vt 0.191451 0.832446
vt 0.189524 0.840888
vt 0.174571 0.758494
vt 0.183445 0.773346
vt 0.189524 0.789543
vt 0.134428 0.726481
vt 0.149662 0.734679
vt 0.163189 0.745465
vt 0.083547 0.719588
vt 0.100830 0.718812
vt 0.117974 0.721134
vt 0.036333 0.739768
vt 0.050772 0.730238
vt 0.066680 0.723438
vt 0.006153 0.781308
vt 0.013660 0.765721
vt 0.023829 0.751724
vt 0.001551 0.832447
vt -0.000000 0.815216
vt 0.001551 0.797985
vt 0.023829 0.878707
vt 0.013660 0.864711
vt 0.006153 0.849124
vt 0.066680 0.906993
vt 0.050772 0.900194
vt 0.036333 0.890663
vt 0.117974 0.909297
vt 0.100830 0.911619
vt 0.083547 0.910843
vt 0.163189 0.884966
vt 0.149663 0.895752
vt 0.134428 0.903951
vt 0.183445 0.857086
vt 0.174571 0.871937
s 1
usemtl 材质.001
f 1/1/1 2/2/2 3/3/3
f 4/4/4 5/5/5 3/3/3
f 3/3/3 5/5/5 6/6/6
f 3/3/3 6/6/6 1/1/1
f 7/7/7 8/8/8 3/3/3
f 3/3/3 8/8/8 9/9/9
f 3/3/3 9/9/9 4/4/4
f 10/10/10 11/11/11 3/3/3
f 3/3/3 11/11/11 12/12/12
f 3/3/3 12/12/12 7/7/7
f 13/13/13 14/14/14 3/3/3
f 3/3/3 14/14/14 15/15/15
f 3/3/3 15/15/15 10/10/10
f 16/16/16 17/17/17 3/3/3
f 3/3/3 17/17/17 18/18/18
f 3/3/3 18/18/18 13/13/13
f 19/19/19 20/20/20 3/3/3
f 3/3/3 20/20/20 21/21/21
f 3/3/3 21/21/21 16/16/16
f 22/22/22 23/23/23 3/3/3
f 3/3/3 23/23/23 24/24/24
f 3/3/3 24/24/24 19/19/19
f 25/25/25 26/26/26 3/3/3
f 3/3/3 26/26/26 27/27/27
f 3/3/3 27/27/27 22/22/22
f 28/28/28 29/29/29 3/3/3
f 3/3/3 29/29/29 30/30/30
f 3/3/3 30/30/30 25/25/25
f 31/31/31 32/32/32 3/3/3
f 3/3/3 32/32/32 33/33/33
f 3/3/3 33/33/33 28/28/28
f 2/2/2 34/34/34 3/3/3
f 3/3/3 34/34/34 35/35/35
f 3/3/3 35/35/35 31/31/31
f 21/36/21 36/37/36 16/38/16
f 16/38/16 36/37/36 37/39/37
f 16/38/16 37/39/37 17/40/17
f 17/40/17 37/39/37 38/41/38
f 17/40/17 38/41/38 18/42/18
f 18/42/18 38/41/38 39/43/39
f 18/42/18 39/43/39 13/44/13
f 13/44/13 39/43/39 40/45/40
f 13/44/13 40/45/40 14/46/14
f 14/46/14 40/45/40 41/47/41
f 14/46/14 41/47/41 15/48/15
f 15/48/15 41/47/41 42/49/42
f 15/48/15 42/49/42 10/50/10
f 10/50/10 42/49/42 43/51/43
f 10/50/10 43/51/43 11/52/11
f 11/52/11 43/51/43 44/53/44
f 11/52/11 44/53/44 12/54/12
f 12/54/12 44/53/44 45/55/45
f 12/56/12 45/57/45 7/58/7
f 7/58/7 45/57/45 46/59/46
f 7/58/7 46/59/46 8/60/8
f 8/60/8 46/59/46 47/61/47
f 8/60/8 47/61/47 9/62/9
f 9/62/9 47/61/47 48/63/48
f 9/62/9 48/63/48 4/64/4
f 4/64/4 48/63/48 49/65/49
f 4/64/4 49/65/49 5/66/5
f 5/66/5 49/65/49 50/67/50
f 5/66/5 50/67/50 6/68/6
f 6/68/6 50/67/50 51/69/51
f 6/68/6 51/69/51 1/70/1
f 1/70/1 51/69/51 52/71/52
f 1/70/1 52/71/52 2/72/2
f 2/72/2 52/71/52 53/73/53
f 2/72/2 53/74/53 34/75/34
f 34/75/34 53/74/53 54/76/54
f 34/75/34 54/76/54 35/77/35
f 35/77/35 54/76/54 55/78/55
f 35/77/35 55/78/55 31/79/31
f 31/79/31 55/78/55 56/80/56
f 31/79/31 56/80/56 32/81/32
f 32/81/32 56/80/56 57/82/57
f 32/81/32 57/82/57 33/83/33
f 33/83/33 57/82/57 58/84/58
f 33/83/33 58/84/58 28/85/28
f 28/85/28 58/84/58 59/86/59
f 28/85/28 59/86/59 29/87/29
f 29/87/29 59/86/59 60/88/60
f 29/87/29 60/88/60 30/89/30
f 30/89/30 60/88/60 61/90/61
f 30/91/30 61/92/61 25/93/25
f 25/93/25 61/92/61 62/94/62
f 25/93/25 62/94/62 26/95/26
f 26/95/26 62/94/62 63/96/63
f 26/95/26 63/96/63 27/97/27
f 27/97/27 63/96/63 64/98/64
f 27/97/27 64/98/64 22/99/22
f 22/99/22 64/98/64 65/100/65
f 22/99/22 65/100/65 23/101/23
f 23/101/23 65/100/65 66/102/66
f 23/101/23 66/102/66 24/103/24
f 24/103/24 66/102/66 67/104/67
f 24/103/24 67/104/67 19/105/19
f 19/105/19 67/104/67 68/106/68
f 19/105/19 68/106/68 20/107/20
f 20/107/20 68/106/68 69/108/69
f 20/107/20 69/108/69 21/73/21
f 21/73/21 69/108/69 36/72/36
f 70/109/70 71/110/71 52/111/52
f 52/111/52 71/110/71 72/112/72
f 52/111/52 72/112/72 53/113/53
f 53/113/53 72/112/72 73/114/73
f 53/113/53 73/114/73 54/115/54
f 54/115/54 73/114/73 74/116/74
f 54/115/54 74/116/74 55/117/55
f 55/117/55 74/116/74 75/118/75
f 55/117/55 75/118/75 56/119/56
f 56/119/56 75/118/75 76/120/76
f 56/119/56 76/120/76 57/121/57
f 57/121/57 76/120/76 77/122/77
f 57/121/57 77/122/77 58/123/58
f 58/123/58 77/122/77 78/124/78
f 58/123/58 78/124/78 59/125/59
f 59/125/59 78/124/78 79/126/79
f 59/125/59 79/126/79 60/127/60
f 60/127/60 79/126/79 80/128/80
f 60/127/60 80/128/80 61/129/61
f 61/129/61 80/128/80 81/130/81
f 61/129/61 81/130/81 62/131/62
f 62/131/62 81/130/81 82/132/82
f 62/131/62 82/132/82 63/133/63
f 63/133/63 82/132/82 83/134/83
f 63/133/63 83/134/83 64/135/64
f 64/135/64 83/134/83 84/136/84
f 64/135/64 84/136/84 65/137/65
f 65/137/65 84/136/84 85/138/85
f 65/137/65 85/138/85 66/139/66
f 66/139/66 85/138/85 86/140/86
f 66/139/66 86/140/86 67/141/67
f 67/141/67 86/140/86 87/142/87
f 67/141/67 87/142/87 68/143/68
f 68/143/68 87/142/87 88/144/88
f 68/143/68 88/144/88 69/145/69
f 69/145/69 88/144/88 89/146/89
f 69/145/69 89/146/89 36/147/36
f 36/147/36 89/146/89 90/148/90
f 36/147/36 90/148/90 37/149/37
f 37/149/37 90/148/90 91/150/91
f 37/149/37 91/150/91 38/151/38
f 38/151/38 91/150/91 92/152/92
f 38/151/38 92/152/92 39/153/39
f 39/153/39 92/152/92 93/154/93
f 39/153/39 93/154/93 40/155/40
f 40/155/40 93/154/93 94/156/94
f 40/155/40 94/156/94 41/157/41
f 41/157/41 94/156/94 95/158/95
f 41/157/41 95/158/95 42/159/42
f 42/159/42 95/158/95 96/160/96
f 42/159/42 96/160/96 43/161/43
f 43/161/43 96/160/96 97/162/97
f 43/161/43 97/162/97 44/163/44
f 44/163/44 97/162/97 98/164/98
f 44/163/44 98/164/98 45/165/45
f 45/165/45 98/164/98 99/166/99
f 45/165/45 99/166/99 46/167/46
f 46/167/46 99/166/99 100/168/100
f 46/167/46 100/168/100 47/169/47
f 47/169/47 100/168/100 101/170/101
f 47/169/47 101/170/101 48/171/48
f 48/171/48 101/170/101 102/172/102
f 48/171/48 102/172/102 49/173/49
f 49/173/49 102/172/102 103/174/103
f 49/173/49 103/174/103 50/175/50
f 50/175/50 103/174/103 104/176/104
f 50/175/50 104/176/104 51/177/51
f 51/177/51 104/176/104 105/178/105
f 51/177/51 105/178/105 52/111/52
f 52/111/52 105/178/105 70/109/70
f 106/179/106 107/180/107 71/181/71
f 71/181/71 107/180/107 72/182/72
f 107/180/107 108/183/108 72/182/72
f 72/182/72 108/183/108 109/184/109
f 72/182/72 109/184/109 73/185/73
f 73/186/73 109/184/109 110/187/110
f 73/186/73 110/187/110 74/188/74
f 74/188/74 110/187/110 111/189/111
f 74/188/74 111/189/111 75/190/75
f 75/190/75 111/189/111 112/191/112
f 75/190/75 112/191/112 76/192/76
f 76/192/76 112/191/112 113/193/113
f 76/192/76 113/193/113 77/194/77
f 77/194/77 113/193/113 114/195/114
f 77/194/77 114/195/114 78/196/78
f 78/196/78 114/195/114 115/197/115
f 78/196/78 115/197/115 79/198/79
f 79/198/79 115/197/115 116/199/116
f 79/198/79 116/199/116 80/200/80
f 80/200/80 116/199/116 117/201/117
f 80/200/80 117/201/117 81/202/81
f 81/202/81 117/201/117 118/203/118
f 81/202/81 118/203/118 82/204/82
f 82/54/82 118/55/118 119/205/119
f 82/54/82 119/205/119 83/206/83
f 83/206/83 119/205/119 120/207/120
f 83/206/83 120/207/120 84/208/84
f 84/208/84 120/207/120 121/209/121
f 84/208/84 121/209/121 85/210/85
f 85/210/85 121/209/121 122/211/122
f 85/210/85 122/211/122 86/212/86
f 86/212/86 122/211/122 123/213/123
f 86/212/86 123/213/123 87/214/87
f 87/214/87 123/213/123 124/215/124
f 87/214/87 124/215/124 88/216/88
f 88/216/88 124/215/124 125/217/125
f 88/216/88 125/217/125 89/218/89
f 89/218/89 125/217/125 126/92/126
f 89/218/89 126/92/126 90/91/90
f 90/219/90 126/203/126 127/220/127
f 90/219/90 127/220/127 91/221/91
f 91/221/91 127/220/127 128/222/128
f 91/221/91 128/222/128 92/223/92
f 92/223/92 128/222/128 129/224/129
f 92/223/92 129/224/129 93/225/93
f 93/225/93 129/224/129 130/226/130
f 93/225/93 130/226/130 94/227/94
f 94/227/94 130/226/130 131/228/131
f 94/227/94 131/228/131 95/229/95
f 95/229/95 131/228/131 132/230/132
f 95/229/95 132/230/132 96/231/96
f 96/231/96 132/230/132 133/232/133
f 96/231/96 133/232/133 97/233/97
f 97/233/97 133/232/133 134/234/134
f 97/233/97 134/234/134 98/235/98
f 98/235/98 134/234/134 135/236/135
f 98/235/98 135/236/135 99/237/99
f 99/238/99 135/239/135 136/240/136
f 99/238/99 136/240/136 100/241/100
f 100/241/100 136/240/136 137/242/137
f 100/241/100 137/242/137 101/243/101
f 101/243/101 137/242/137 138/244/138
f 101/243/101 138/244/138 102/245/102
f 102/245/102 138/244/138 139/246/139
f 102/245/102 139/246/139 103/247/103
f 103/247/103 139/246/139 140/248/140
f 103/247/103 140/248/140 104/249/104
f 104/249/104 140/248/140 141/250/141
f 104/249/104 141/250/141 105/251/105
f 105/251/105 141/250/141 106/179/106
f 105/251/105 106/179/106 70/252/70
f 70/252/70 106/179/106 71/181/71
f 109/253/109 108/254/108 142/255/142
f 142/255/142 108/254/108 107/256/107
f 142/255/142 107/256/107 106/257/106
f 112/258/112 111/259/111 142/255/142
f 142/255/142 111/259/111 110/260/110
f 142/255/142 110/260/110 109/253/109
f 115/261/115 114/262/114 142/255/142
f 142/255/142 114/262/114 113/263/113
f 142/255/142 113/263/113 112/258/112
f 118/264/118 117/265/117 142/255/142
f 142/255/142 117/265/117 116/266/116
f 142/255/142 116/266/116 115/261/115
f 121/267/121 120/268/120 142/255/142
f 142/255/142 120/268/120 119/269/119
f 142/255/142 119/269/119 118/264/118
f 124/270/124 123/271/123 142/255/142
f 142/255/142 123/271/123 122/272/122
f 142/255/142 122/272/122 121/267/121
f 127/273/127 126/274/126 142/255/142
f 142/255/142 126/274/126 125/275/125
f 142/255/142 125/275/125 124/270/124
f 130/276/130 129/277/129 142/255/142
f 142/255/142 129/277/129 128/278/128
f 142/255/142 128/278/128 127/273/127
f 133/279/133 132/280/132 142/255/142
f 142/255/142 132/280/132 131/281/131
f 142/255/142 131/281/131 130/276/130
f 136/282/136 135/283/135 142/255/142
f 142/255/142 135/283/135 134/284/134
f 142/255/142 134/284/134 133/279/133
f 139/285/139 138/286/138 142/255/142
f 142/255/142 138/286/138 137/287/137
f 142/255/142 137/287/137 136/282/136
f 106/257/106 141/288/141 142/255/142
f 142/255/142 141/288/141 140/289/140
f 142/255/142 140/289/140 139/285/139
