# Blender 4.1.1
# www.blender.org
mtllib tabletop.mtl
o tabletop
v 609.599976 0.000000 -381.000000
v 609.599976 0.000000 381.000000
v 609.599976 -30.000000 -381.000000
v 609.599976 -30.000000 381.000000
v -609.599976 0.000000 -381.000000
v -609.599976 -30.000000 -381.000000
v -609.599976 0.000000 381.000000
v -609.599976 -30.000000 381.000000
vn 0.5773 0.5773 -0.5774
vn 0.5774 0.5773 0.5773
vn 0.5774 -0.5773 -0.5773
vn 0.5773 -0.5773 0.5774
vn -0.5774 0.5773 -0.5773
vn -0.5773 -0.5773 -0.5774
vn -0.5773 0.5773 0.5774
vn -0.5774 -0.5773 0.5773
vt 0.981413 0.472119
vt 0.981413 -0.000000
vt 1.000000 0.472119
vt 1.000000 -0.000000
vt 0.944238 0.755390
vt 0.944238 -0.000000
vt 0.962825 0.755390
vt 0.962825 -0.000000
vt 0.981413 0.944238
vt 0.981413 0.472119
vt 1.000000 0.944238
vt 1.000000 0.472119
vt 0.962825 0.755390
vt 0.962825 -0.000000
vt 0.981413 0.755390
vt 0.981413 -0.000000
vt 0.000000 0.755390
vt 0.000000 0.000000
vt 0.472119 0.755390
vt 0.472119 0.000000
vt 0.472119 0.755390
vt 0.472119 -0.000000
vt 0.944238 0.755390
vt 0.944238 0.000000
s 1
usemtl 材质
f 1/1/1 2/2/2 3/3/3
f 3/3/3 2/2/2 4/4/4
f 5/5/5 1/6/1 6/7/6
f 6/7/6 1/6/1 3/8/3
f 7/9/7 5/10/5 8/11/8
f 8/11/8 5/10/5 6/12/6
f 2/13/2 7/14/7 4/15/4
f 4/15/4 7/14/7 8/16/8
f 7/17/7 2/18/2 5/19/5
f 5/19/5 2/18/2 1/20/1
f 4/21/4 8/22/8 3/23/3
f 3/23/3 8/22/8 6/24/6
